<svg width="385" height="619" viewBox="0 0 385 619" fill="none" xmlns="http://www.w3.org/2000/svg">
<path d="M264 318C263.273 300.001 258.106 295.576 244.5 293C190.898 316.013 160.647 318.637 107 302.5L99.5 320C119.241 317.879 138.374 327.754 175.5 349.5C208.804 317.387 228.498 315.38 264 318Z" stroke="black"/>
<path d="M123.992 306.5C126.295 288.554 123.216 272.634 103.492 225.5C134.792 226.349 143.24 220.376 157.992 209.5C186.588 213.877 201.712 213.944 228.492 213.5C212.511 247.947 216.473 267.37 221.992 302C184.896 311.88 163.918 316.041 123.992 306.5Z" stroke="black"/>
<path d="M189.494 366.5C160.68 334.853 141.236 323.94 99.4938 319.5C63.5018 372.646 62.4897 393.758 103.494 412C98.6052 422.758 103.494 427.5 109.5 438.5H163C170.047 431.317 172.233 425.765 171.5 412C175.649 405.706 177.376 401.612 176 390L189.494 366.5ZM189.494 366.5C204.839 380.162 213.42 387.673 228.494 400C233.256 417.811 241.921 426.108 266.5 438.5L310.5 415C318.066 395.824 315.515 385.167 300.5 366.5C291.891 345.428 285.021 334.25 264 317C230.5 312 151.942 337.701 189.494 366.5Z" stroke="black"/>
<path d="M119.501 544C122.501 503 98.9594 456.472 110.501 442C127.167 440.667 160.9 438 162.5 438C187.248 475.611 179.414 483.6 169 500C157.587 519.784 157.861 530.534 162.5 549.5C150 547.667 123.9 544 119.501 544Z" stroke="black"/>
<path d="M309.5 529.5C314 482 258 490 268.5 442L309.5 415.5C320.745 438.666 346.868 442 344.5 455.5C338.521 489.588 340.55 504.034 344.5 529.5H309.5Z" stroke="black"/>
<path d="M49 588.5C83.7179 573.51 96.5632 563.772 115 545.5L161.5 552.5C162.833 564.5 165.5 589.2 165.5 592C165.5 594.8 87.8333 602.5 49 606V588.5Z" stroke="black"/>
<path d="M312.5 568.5C310.5 560.1 311.667 542 312.5 534H349.5C351.167 543 354.9 562.5 356.5 568.5C358.5 576 370.5 602.5 370.5 609C370.5 615.5 329 618 324.5 618C320 618 320.5 610 317.5 598C314.5 586 315 579 312.5 568.5Z" stroke="black"/>
<path d="M5 377.5C5 375.1 8.33333 350.5 10 338.5L37 331.5C42.6667 335.833 54.5 345.1 56.5 347.5C59 350.5 58.5 361 63.5 368C68.5 375 64.5 384 63.5 390.5C62.5 397 51.5 377.5 50.5 377.5C49.5 377.5 45.5 349.5 43 368C40.5 386.5 58 393 56.5 394C55 395 51.5 403.5 45.5 407.5C39.5 411.5 18 403.5 16 403.5C14 403.5 5 380.5 5 377.5Z" stroke="black"/>
<path d="M331.5 314.5L353 299C363 300.333 382.6 303.7 381 306.5C379 310 385 340 383 355C381 370 371.5 377.5 362.5 379.5C353.5 381.5 325 377.5 325 373C325 368.5 337 365 340.5 363C343.3 361.4 348.333 355 350.5 352V338C348.333 335.833 343.3 332.1 340.5 334.5C337 337.5 329.5 350.5 329 355C328.5 359.5 320 357 319.5 355C319 353 322 342 325 338C327.4 334.8 330.333 321 331.5 314.5Z" stroke="black"/>
<path d="M209.501 128.5C186.501 121.5 181.001 92 180.001 89C180.001 95.8333 178.801 110.5 174 114.5C167.999 119.5 145.501 139 140.001 144C134.501 149 112.001 150.5 113.501 153.5C115.001 156.5 157.001 163.5 170.001 157C180.401 151.8 228.001 141.833 250.501 137.5C244.501 136.833 227.901 134.1 209.501 128.5Z" stroke="black"/>
<path d="M175.499 86.5001C175.499 91.0001 180.499 95.0001 177.999 103.5C175.499 112 154.999 122.5 151.499 126C147.999 129.5 143.499 141.5 135.499 143C127.499 144.5 119.999 141.5 116.499 145C112.999 148.5 103.999 153 98.4994 149C92.9994 145 94.4994 130 94.4994 122.5C94.4994 115 94.4994 106.5 94.4994 103.5C94.4994 100.5 93 116 100.5 117C108 118 142 103.5 142 99.5001C142 95.5001 166.5 70.0001 168 61.0001C169.2 53.8001 173.5 75.0001 175.499 86.5001Z" stroke="black"/>
<path d="M179.5 50.0001C175.5 48.0001 176 50.5001 171 58.0001C172.5 63.1668 175.6 74.9 176 80.5C176.5 87.5 179.5 88.5 182.5 84C185.5 79.5 186.5 71 186.5 61.5C186.5 52 183.5 52.0001 179.5 50.0001Z" stroke="black"/>
<path d="M94.4995 79C95.9995 75.5 98.4995 70.5 100.5 59.5C103 59.5 109 60.6 113 65C118 70.5 117 77.5 116 81C115 84.5 106.5 86.5 98.4995 87.5C90.4995 88.5 92.9995 82.5 94.4995 79Z" stroke="black"/>
<path d="M120 91C108.4 91 99.5 99.6667 96.5 104C99.3333 105.833 106.6 109.5 113 109.5C119.4 109.5 133.667 97.1667 140 91H120Z" stroke="black"/>
<path d="M128.998 52.9998C116.498 50.9998 111.998 59.4998 112.498 60.9998L131 58C134.499 56.9999 138.998 54.5998 128.998 52.9998Z" stroke="black"/>
<path d="M84.5 73C84.5 70.5 88 67 94 66L95 70L89 75.5C87.5 75.5 84.5 75 84.5 73Z" stroke="black"/>
<path d="M144.5 34L84.5 48.5C86.6667 41.3334 92.7 25.9 99.5 21.5C108 16 119 17 129 15.5C139 14 142.5 18 152 22.5C159.6 26.1 150.167 31.6667 144.5 34Z" stroke="black"/>
<path d="M130 0.999913C113.2 0.599913 97.6667 15.8332 92 23.4999C93.6667 23.4999 97.5 22.9999 99.5 21C102 18.5001 127.5 13.5 135.5 12.5C141.9 11.7 153.167 19.4999 158 23.4999C161.667 33.3333 169.1 52.6 169.5 51C169.9 49.4 178.667 49 183 49C181.333 41.5 177.8 25.9 177 23.4999C176 20.4998 165.5 9.5 162.5 6.5C159.5 3.5 151 1.49991 130 0.999913Z" stroke="black"/>
<path d="M53.9978 265.5C66.5963 254.271 71.7837 246.314 76.4978 228.5L74.4964 223.5C51.4964 229.5 38.8348 224.576 21.9964 212C14.0376 225.615 12.5174 232.915 13.4978 244C-8.54384 268.444 4.79216 290.542 8.9999 333.5L34.9978 328C65.9978 288.5 43.9978 267 53.9978 265.5Z" stroke="black"/>
<path d="M345.496 207.5C335.986 188.859 329.974 180.737 316.996 174.5L277.496 204.5C291.339 223.119 299.925 229.619 316.996 233C318.775 235.89 321.996 239.5 323.496 255C324.996 270.5 340.996 271.5 353.496 295L383.996 296.5C384.78 260.586 381.838 240.694 345.496 207.5Z" stroke="black"/>
<path d="M68.5 182.009L111.5 154.509C152 170.5 158.5 165 217.5 144.009C220.165 143.061 250.667 165.509 265.5 176.009C265.239 207.129 257.893 221.446 158.5 209.509C141.007 224.487 124.393 227.115 103.5 225.009C97.6859 226.653 76.4402 213.696 72 204.009C71 201.827 69.6667 188.342 68.5 182.009Z" stroke="black"/>
<path d="M85.9977 153.001C92.9977 154.168 107.598 156.201 109.998 155.001L68.5 182.001L71.5 203.001L74.5 224C52.2907 227.385 44.3582 227.574 21.9976 212.001C14.9244 176.916 27.8807 169.205 60.9976 162.501L85.9977 153.001Z" stroke="black"/>
<path d="M247 139.501L218.5 143.501C266 174.501 268.5 173.001 277.5 204.501L317 174.501C311.932 142.355 293.938 136.885 247 139.501Z" stroke="black"/>
<path d="M92.5 237C83.3537 235.573 79.8566 233.16 75.5 227L71.5 204.5C83.1562 218.307 90.0699 221.099 102.5 225C103.229 236.68 107.31 245.351 117.5 262.5V273L106.5 264.5C103.278 257.793 99.8315 251.099 92.5 237Z" stroke="black"/>
<path d="M277.5 204.5C274.863 192.736 273.369 186.147 265.5 177.5C266.044 196.749 260.303 203.798 243 212V258C250.5 237 271.788 224.835 277.5 204.5Z" stroke="black"/>
</svg>
